<svg id="Camada_1" data-name="Camada 1" xmlns="http://www.w3.org/2000/svg" viewBox="0 0 98.64 64.91"><defs><style>.cls-1{isolation:isolate}.cls-2{fill:#fff}</style></defs><title>logo_pix_b</title><g class="cls-1"><path class="cls-2" d="M377 562v-2.37h3a5.24 5.24 0 0 1 .4 2.1 3 3 0 0 1-.87 2.33 3.51 3.51 0 0 1-2.48.81 3.77 3.77 0 0 1-1.77-.4 2.84 2.84 0 0 1-1.19-1.15 3.46 3.46 0 0 1-.42-1.72 4.38 4.38 0 0 1 .39-1.89l.41.18a4 4 0 0 0-.39 1.73 2.62 2.62 0 0 0 .8 2 3 3 0 0 0 2.16.75 3.11 3.11 0 0 0 2.22-.71 2.73 2.73 0 0 0 .75-2.08 4 4 0 0 0-.26-1.51h-2.3V562zM377.44 557.61h2.85v.45h-6.55v-1.53a2.85 2.85 0 0 1 .45-1.77 1.62 1.62 0 0 1 1.35-.57 1.79 1.79 0 0 1 1.11.34 1.89 1.89 0 0 1 .65 1l3-1.75v.54l-2.86 1.68zm-.39 0v-1.23a1.93 1.93 0 0 0-.37-1.26 1.33 1.33 0 0 0-1.09-.45 1.29 1.29 0 0 0-1.09.44 2.37 2.37 0 0 0-.34 1.43v1.06zM373.75 548H378a2.37 2.37 0 0 1 1.76.64 2.43 2.43 0 0 1 .64 1.79 2.33 2.33 0 0 1-.64 1.74 2.43 2.43 0 0 1-1.78.63h-4.22v-.45H378a2 2 0 0 0 1.47-.51 1.94 1.94 0 0 0 .53-1.46 1.9 1.9 0 0 0-.52-1.42 2 2 0 0 0-1.44-.51h-4.28zM375.63 542.36a1.75 1.75 0 0 1 1.46.63 2.81 2.81 0 0 1 .51 1.79v1h2.7v.45h-6.55v-1.57q0-2.3 1.88-2.3zm1.57 3.42v-.88a2.64 2.64 0 0 0-.37-1.57 1.39 1.39 0 0 0-1.18-.48 1.35 1.35 0 0 0-1.12.46 2.26 2.26 0 0 0-.36 1.42v1.06zM377 535.56a3.7 3.7 0 0 1 2.46.77 2.91 2.91 0 0 1 0 4.22 3.72 3.72 0 0 1-2.47.76 3.65 3.65 0 0 1-2.46-.77 2.63 2.63 0 0 1-.9-2.11 2.61 2.61 0 0 1 .9-2.11 3.71 3.71 0 0 1 2.47-.76zm0 5.26a3.4 3.4 0 0 0 2.17-.62 2.43 2.43 0 0 0 0-3.54A3.4 3.4 0 0 0 377 536a3.36 3.36 0 0 0-2.17.61 2.44 2.44 0 0 0 0 3.54 3.33 3.33 0 0 0 2.17.67z" transform="translate(-373.64 -535.42)"/></g><g class="cls-1"><path class="cls-2" d="M415.12 551.46v8.44c0 10.39-5 16-15.22 16h-4.83v24.39h-10.21v-64.87h15c10.25 0 15.26 5.66 15.26 16.04zm-20-6.77v22h4.83c3.25 0 5-1.48 5-6.12v-9.74c0-4.64-1.76-6.12-5-6.12zM419.85 535.42h10.21v64.91h-10.21zM471.54 535.42l-10.67 31.53 11.42 33.38h-10.77l-8.26-25.69h-.19l-8.35 25.69h-9.56l11.42-33.38-10.68-31.53h10.58l7.61 23.92h.19l7.8-23.92z" transform="translate(-373.64 -535.42)"/></g></svg>